<svg xmlns="http://www.w3.org/2000/svg" viewBox="0 0 63.88 73" width="63.88" height="73"><title>business</title><g class="nc-icon-wrapper"><defs/><g id="Layer_2" data-name="Layer 2"><path class="cls-1" d="M27.38 15.26V21a1.72 1.72 0 0 1-1.72 1.71H20A1.72 1.72 0 0 1 18.25 21v-5.7A1.72 1.72 0 0 1 20 13.54h5.7a1.72 1.72 0 0 1 1.68 1.72zm16.53-1.72h-5.7a1.72 1.72 0 0 0-1.71 1.72V21a1.72 1.72 0 0 0 1.71 1.71h5.7A1.71 1.71 0 0 0 45.62 21v-5.7a1.71 1.71 0 0 0-1.71-1.76zM25.66 27.23H20a1.72 1.72 0 0 0-1.71 1.71v5.71A1.72 1.72 0 0 0 20 36.36h5.7a1.72 1.72 0 0 0 1.72-1.71v-5.71a1.72 1.72 0 0 0-1.76-1.71zm18.25 0h-5.7a1.72 1.72 0 0 0-1.71 1.71v5.71a1.72 1.72 0 0 0 1.71 1.71h5.7a1.71 1.71 0 0 0 1.71-1.71v-5.71a1.71 1.71 0 0 0-1.71-1.71zM25.66 40.92H20a1.72 1.72 0 0 0-1.71 1.71v5.7A1.71 1.71 0 0 0 20 50h5.7a1.71 1.71 0 0 0 1.72-1.71v-5.7a1.72 1.72 0 0 0-1.76-1.67zm18.25 0h-5.7a1.72 1.72 0 0 0-1.71 1.71v5.7A1.71 1.71 0 0 0 38.21 50h5.7a1.7 1.7 0 0 0 1.71-1.71v-5.7a1.71 1.71 0 0 0-1.71-1.67zm20 29.23V73H0v-2.85a1.71 1.71 0 0 1 1.71-1.71h2.85v-65A3.42 3.42 0 0 1 8 0h47.89a3.42 3.42 0 0 1 3.42 3.42v65h2.85a1.71 1.71 0 0 1 1.72 1.73zm-9.13-1.71V4.56H9.12v63.88h18.26V56.32a1.7 1.7 0 0 1 1.71-1.71h5.7a1.71 1.71 0 0 1 1.71 1.71v12.12z" id="Desktop" style="" fill="#17afe4"/></g></g></svg>