<svg xmlns="http://www.w3.org/2000/svg" viewBox="0 0 55.09 62.97" width="55.09" height="62.97"><title>copy</title><g class="nc-icon-wrapper"><defs/><g id="Layer_2" data-name="Layer 2"><path class="cls-1" d="M53.37 8.11L47 1.73A5.9 5.9 0 0 0 42.81 0H21.64a5.9 5.9 0 0 0-5.9 5.9v5.91H5.9a5.9 5.9 0 0 0-5.9 5.9v39.35A5.91 5.91 0 0 0 5.9 63h27.55a5.91 5.91 0 0 0 5.9-5.91v-5.9h9.84a5.9 5.9 0 0 0 5.9-5.9v-33a5.93 5.93 0 0 0-1.72-4.18zM43.29 4a1.92 1.92 0 0 1 .91.51l6.38 6.38a1.92 1.92 0 0 1 .52.92h-7.81zm-7.87 53.06a2 2 0 0 1-2 2H5.9a2 2 0 0 1-2-2V17.71a2 2 0 0 1 2-2h9.84v29.55a5.9 5.9 0 0 0 5.9 5.9h13.78zm15.74-11.8a2 2 0 0 1-2 2H21.64a2 2 0 0 1-2-2V5.9a2 2 0 0 1 2-2h17.71v8.85a3 3 0 0 0 2.95 3h8.86z" id="Layer_2-2" data-name="Layer 2" style="" fill="#17afe4"/></g></g></svg>