<svg id="9e879730-9577-411c-b273-52dbb8e50ba4" data-name="Layer 1" xmlns="http://www.w3.org/2000/svg" viewBox="0 0 51.15 36.78" width="51.15" height="36.78"><title>EM Logo</title><g class="nc-icon-wrapper"><path d="M2514.57 2499.2a12.42 12.42 0 1 1-17-4.28 12.43 12.43 0 0 1 17 4.28" transform="translate(-2474 -2481.22)" fill="#0090c8"/><path d="M2513.55 2509a10.05 10.05 0 1 1-3.58-13.76 10.06 10.06 0 0 1 3.58 13.76" transform="translate(-2474 -2481.22)" fill="#fff"/><path d="M2493.67 2499.3a7.88 7.88 0 1 1-10.81-2.72 7.88 7.88 0 0 1 10.81 2.72" transform="translate(-2474 -2481.22)" fill="#0090c8"/><path d="M2499.56 2501.29a6 6 0 1 0 8.15-2.12 5.88 5.88 0 0 0-3-.82 6 6 0 0 0-5.14 2.94" transform="translate(-2474 -2481.22)" fill="#0090c8"/><path d="M2492.32 2506.52a6.27 6.27 0 1 1-2.23-8.59 6.27 6.27 0 0 1 2.23 8.59" transform="translate(-2474 -2481.22)" fill="#fff"/><path d="M2491.9 2508.79c-.74 1.39-4.84 2.92-8 1.1-.24-.14-.42-.39-.69-.46 1.16.32 5.38 1.9 8.52-1.41" transform="translate(-2474 -2481.22)" fill="#fff"/><path d="M2524.89 2489.64a17.76 17.76 0 0 0 .12-5.25c-.11-1.06-.19-2.43-1.26-3a2.2 2.2 0 0 0-2.59.87c-1.69 2-3.67 8.56-13.4 9.89a11.28 11.28 0 0 1 7.92 11 26.61 26.61 0 0 0 3-2.7c2.79-2.93 5.38-6.81 6.2-10.81" transform="translate(-2474 -2481.22)" fill="#0090c8"/><path d="M2523.28 2483.22a28.13 28.13 0 0 1-8 16.83c0 .15.07.29.1.43a18.16 18.16 0 0 0 7.87-17.26" transform="translate(-2474 -2481.22)" fill="#fff"/><path d="M2474 2490.32a13.48 13.48 0 0 1 .4-4c.18-.79.37-1.83 1.23-2.16a1.7 1.7 0 0 1 1.89.9c1.09 1.71 2 6.84 9.25 8.76a8.54 8.54 0 0 0-4.63 2.47 8.67 8.67 0 0 0-2.41 5.14 21.54 21.54 0 0 1-2-2.33 18 18 0 0 1-3.69-8.78" transform="translate(-2474 -2481.22)" fill="#0090c8"/><path d="M2475.85 2485.59a21.61 21.61 0 0 0 4.48 13.53l-.12.31a13.89 13.89 0 0 1-4.36-13.84" transform="translate(-2474 -2481.22)" fill="#fff"/><path d="M2493.89 2509.4a13 13 0 0 1-1.07-2.27 11.07 11.07 0 0 0 16.69 8.18 10.05 10.05 0 0 0 1.14-.79 13.07 13.07 0 0 1-16.76-5.12" transform="translate(-2474 -2481.22)" fill="#fff"/><path d="M2483.59 2501.7a3.72 3.72 0 1 0 5.09-1.33 3.77 3.77 0 0 0-1.88-.51 3.72 3.72 0 0 0-3.21 1.84" transform="translate(-2474 -2481.22)" fill="#0090c8"/><circle cx="12.87" cy="22.17" r="1.84" fill="#fff"/><circle cx="30.82" cy="22.78" r="2.94" fill="#fff"/></g></svg>