<svg id="e5a1b4b3-ae24-4330-934e-d6ac42b70ed7" data-name="Layer 1" xmlns="http://www.w3.org/2000/svg" viewBox="0 0 46.92 47.15" width="46.92" height="47.15"><title>ok</title><g class="nc-icon-wrapper"><path d="M2571.61-244.1l-.14 2.34h-14.76v-27.52h14.62l.35 1.51c.2 0 .47 0 .59-.09 5.58-5.31 11.88-10.07 14.08-18 .39-1.39 1-2.79 2.85-2.67a3.54 3.54 0 0 1 3.25 2.94c1.33 5.05-.07 9.69-2.26 14.19-.28.57-.66 1.1-1.23 2h5.83a29.89 29.89 0 0 1 4.24.21c2.06.33 3.89 1.2 4.46 3.42s-.68 3.65-2.43 4.69c1.33 3.53 1.13 4.53-1.24 6.59 1.3 3.14.86 4.52-2 6.38.39 3.33-.81 5.43-4.23 5.88-6.39.85-12.86 1.57-19.12-1-.88-.3-1.77-.52-2.86-.87zm18-42.42h-.89c-2.41 9.87-9.77 15.72-17.1 21.86v18.44c2.94.83 5.82 2 8.8 2.37a54.71 54.71 0 0 0 9.58 0 15.09 15.09 0 0 0 4.53-1c1.06-.39 1.81-1.4.77-2.52-1.73-1.87-.46-2.23 1.12-2.78a3.1 3.1 0 0 0 1.82-1.7c.12-.49-.83-1.27-1.35-1.89s-1-1.06-1.49-1.58c.69-.35 1.4-.67 2.07-1.07s1.5-1 2.25-1.48c-.57-.81-1.1-1.66-1.72-2.43-.2-.24-.71-.22-.94-.46s-.72-.84-.64-1.18.66-.7 1.08-.8a13 13 0 0 0 2.49-.38 2.64 2.64 0 0 0 1.36-1.66 2 2 0 0 0-1-1.65 9.64 9.64 0 0 0-3.45-.83c-3.13-.11-6.26 0-9.39-.08a2.24 2.24 0 0 1-1.73-.83c-.19-.41.26-1.3.66-1.77a18.31 18.31 0 0 0 4.26-13.65 10.88 10.88 0 0 0-1.1-2.93zm-20.3 19.41h-10.42v23.23h10.42z" transform="translate(-2556.71 288.58)" fill="#0090c8"/></g></svg>