<svg id="09e60095-1ac7-4ed0-a578-829bfac1a089" data-name="Layer 1" xmlns="http://www.w3.org/2000/svg" viewBox="0 0 43.05 43.31" width="43.05" height="43.31"><title>phone 1</title><g class="nc-icon-wrapper"><path d="M2592.32-900.15a29.45 29.45 0 0 1-13-4.89c-7.93-5.25-14.38-11.9-18.52-20.58a22.29 22.29 0 0 1-2.19-8.18 3.48 3.48 0 0 1 1-2.85c1.93-1.93 3.84-3.88 5.79-5.78 1.56-1.53 3.08-1.35 4.25.48 1.48 2.33 3 4.68 4.38 7a3.36 3.36 0 0 1-.49 4.56c-.61.66-1.27 1.28-1.9 1.91a1.76 1.76 0 0 0-.23 2.5 45.88 45.88 0 0 0 12.74 12.71 1.67 1.67 0 0 0 2.32-.18c.68-.64 1.31-1.33 2-2a3.42 3.42 0 0 1 4.67-.48q3.48 2.15 6.93 4.33c1.85 1.17 2 2.69.54 4.24-1.93 2-3.86 4-5.89 5.85a11 11 0 0 1-2.4 1.36zm0-2.12a3.77 3.77 0 0 0 1.27-.63c1.94-1.86 3.81-3.8 5.73-5.68.58-.57.49-.95-.18-1.36-2.35-1.45-4.7-2.91-7-4.39a1.67 1.67 0 0 0-2.31.29c-.6.61-1.2 1.22-1.82 1.81-1.62 1.55-3.1 1.69-4.94.46A46.51 46.51 0 0 1 2570-924.9a3.44 3.44 0 0 1 .37-4.77c.6-.66 1.25-1.28 1.89-1.9a1.69 1.69 0 0 0 .3-2.4c-1.47-2.29-2.9-4.61-4.32-6.93-.43-.71-.82-.83-1.44-.2-1.85 1.9-3.77 3.72-5.58 5.66a2.32 2.32 0 0 0-.6 1.76 35.53 35.53 0 0 0 1.92 7c3.81 8.44 10.08 14.81 17.68 19.9a25.28 25.28 0 0 0 12.15 4.51z" transform="translate(-2558.64 943.46)" fill="#0090c8"/><path d="M2601.62-922h-1.79a18.51 18.51 0 0 0-5.53-14.13 18.24 18.24 0 0 0-14.07-5.47v-1.77a20.45 20.45 0 0 1 21.39 21.37z" transform="translate(-2558.64 943.46)" fill="#0090c8"/><path d="M2580.21-936v-1.74c7.68-1 16.42 5.92 15.81 15.67h-1.8a13.14 13.14 0 0 0-3.86-10.09 12.86 12.86 0 0 0-10.15-3.84z" transform="translate(-2558.64 943.46)" fill="#0090c8"/><path d="M2590.41-922h-1.8a8 8 0 0 0-2.21-6.15 7.74 7.74 0 0 0-6.15-2.21v-1.73c4.85-.83 10.63 3.54 10.16 10.09z" transform="translate(-2558.64 943.46)" fill="#0090c8"/></g></svg>