<svg data-name="Layer 1" xmlns="http://www.w3.org/2000/svg" viewBox="0 0 48.1 48.1"><title>rates gas</title><g class="nc-icon-wrapper"><circle class="cls-1" cx="24.05" cy="24.05" r="23.23" fill="none" stroke="#000" stroke-miterlimit="10" stroke-width="1.63"/><path class="cls-2" d="M26.03 26.97c0 1.7-.88 3.08-2 3.08s-2-1.38-2-3.08c0 0-.44-1.29 1.92-4.58 0 0 1.91 2.52 2 4.53" fill="#000"/><rect class="cls-3" x="19.21" y="34.84" width="9.68" height="3.56" rx="1.78" ry="1.78" fill="none" stroke="#000" stroke-miterlimit="10" stroke-linecap="round" stroke-width=".99"/><path class="cls-4" d="M33.41 23.67c-.31-6.21-9.53-14-9.53-14-9.66 8.37-9.27 14.14-9.27 14.14a9.51 9.51 0 0 0 9.51 9.51c5.25 0 9.36-3.4 9.36-8.65z" fill="none" stroke="#000" stroke-miterlimit="10" stroke-linecap="round" stroke-width=".96"/></g></svg>