<svg xmlns="http://www.w3.org/2000/svg" viewBox="0 0 83.38 73" width="83.38" height="73"><title>residential</title><g class="nc-icon-wrapper"><defs/><g id="Layer_2" data-name="Layer 2"><path class="cls-1" d="M83 31.84l-10-8.1V11.37a1 1 0 0 0-1-1h-3.28a1 1 0 0 0-1 1v8.16L45 1.16a5.18 5.18 0 0 0-6.54 0L.37 31.84a1 1 0 0 0-.15 1.36l2.05 2.54a1 1 0 0 0 1.38.15l6.78-5.45v37.28a5.2 5.2 0 0 0 5.21 5.21h18.89a2 2 0 0 0 1.95-2V49.47l10.42.05v21.53a2 2 0 0 0 2 2h18.88A5.2 5.2 0 0 0 73 67.74V30.45l6.78 5.46a1 1 0 0 0 1.38-.15l2-2.54a1 1 0 0 0-.16-1.38zm-15.26 35.9l-15.63.05V46.25a2 2 0 0 0-2-2H33.17a2 2 0 0 0-1.95 2v21.49H15.64v-41.5L41.07 5.72a1 1 0 0 1 1.22 0l25.44 20.52v41.5z" id="Desktop" style="" fill="#17afe4"/></g></g></svg>