<svg id="63d00b6d-0feb-416d-9756-56dce4557f2e" data-name="Layer 1" xmlns="http://www.w3.org/2000/svg" viewBox="0 0 52.03 49.71" width="52.03" height="49.71"><title>people</title><g class="nc-icon-wrapper"><path d="M1955.48-893.75c0-2.41-.1-4.69.06-7a2.66 2.66 0 0 1 1.27-1.87c2.13-1.09 4.38-1.94 6.57-2.92 1.85-.84 3.73-1.65 5.51-2.64s2.28-4 1.15-5.8c-.68-1.1-1.09-2.37-1.69-3.53a8.79 8.79 0 0 0-1.19-1.86 6 6 0 0 1-1.25-5.86 7 7 0 0 0 .2-2.41c-.34-3.47-1-6.94.8-10.23a4.79 4.79 0 0 1 1-1.66c3.34-2.46 6.79-4.57 11.27-3.81 4.09.69 7.23 2.64 8.87 6.5 1.24 2.94.53 6 .19 9.06a8.19 8.19 0 0 0 .19 2.56c.46 2.17.32 4.14-1.42 5.79a5.44 5.44 0 0 0-.94 1.63c-.59 1.23-1.16 2.48-1.71 3.73a8.09 8.09 0 0 0-.57 1.63c-.46 2.41.53 4 2.78 4.95 3.26 1.37 6.48 2.83 9.73 4.21 1.71.72 2.7 1.72 2.45 3.8a51.14 51.14 0 0 0 0 5.69zm41.11-2.11a21.11 21.11 0 0 1 0-2.89c.24-1.62-.53-2.34-1.95-2.87-2.64-1-5.25-2.06-7.8-3.25a19.14 19.14 0 0 1-3.91-2.51c-1.34-1.1-2.15-6.27-1-7.22 1.67-1.45 1.9-3.38 2.45-5.26a2 2 0 0 1 .86-1.11c1.07-.65 1.94-2.49 1.13-3.34-1.22-1.26-.51-2.32-.32-3.56.26-1.77.38-3.57.49-5.36a6.83 6.83 0 0 0-2.34-5.45c-2.08-2-4.68-2.52-7.46-2.53s-4.7 2.33-7.17 3.22c-.31.11-.46.68-.65 1-1.51 2.91-.92 6-.58 9 .14 1.28 1 2.59-.36 3.78-.25.21-.12.91-.09 1.38.08 1.22 1.56 1.66 1.79 2.28.86 2.32 2.34 4.49 2.9 6.72 1.19 4.75-.08 6.55-4.59 8.66-2.93 1.37-6 2.48-8.93 3.8-.56.25-1.26.85-1.33 1.37a29.28 29.28 0 0 0-.06 4.09z" transform="translate(-1955.45 943.46)" fill="#0090c8"/><path d="M2007.4-895.87h-6.4v-2h4.24c0-2 .08-3.75-.06-5.52 0-.47-.69-1.07-1.19-1.29-2.35-1.06-4.78-2-7.12-3-4.13-1.87-4.9-3.22-4.56-7.69a3.1 3.1 0 0 1 .27-1c.66-1.43 1.33-2.85 2.05-4.25a3.61 3.61 0 0 1 1-1.26 2.3 2.3 0 0 0 .55-3.12 2.52 2.52 0 0 1-.32-1.52c.18-1.55.59-3.07.7-4.61.31-4.35-2.21-7.34-6.55-7.92-.28 0-.57-.05-.91-.08V-941c3.51-1.09 9.22 2.52 9.61 7.72a24.78 24.78 0 0 1-.15 3.94 11.13 11.13 0 0 0 0 4.56 6 6 0 0 1-.68 3.75c-.93 2-2.22 3.86-3.24 5.84a3.5 3.5 0 0 0 1.53 4.59c2.85 1.38 5.76 2.68 8.7 3.87 1.82.74 2.77 1.74 2.56 3.88s-.03 4.57-.03 6.98z" transform="translate(-1955.45 943.46)" fill="#0090c8"/></g></svg>