<svg id="Layer_1" data-name="Layer 1" xmlns="http://www.w3.org/2000/svg" width="38" height="38" viewBox="0 0 38.3 38.3"><title>pointer</title><g class="nc-icon-wrapper"><defs/><path class="cls-1" d="M34.11 6.85a20.08 20.08 0 0 0-4.77-4.17.61.61 0 0 0-.84.21l-.6 1a.59.59 0 0 0 .21.8A17.82 17.82 0 0 1 32 8.06l-10.06 5.81a7 7 0 0 0-3.41-.9 7.18 7.18 0 0 0 0 14.36 7 7 0 0 0 3.41-.9l9.84 5.68a17.52 17.52 0 0 1-3.67 3.13.59.59 0 0 0-.21.8l.6 1a.61.61 0 0 0 .84.21 20.32 20.32 0 0 0 4.55-4l10.35 6 4.36-.52a1.2 1.2 0 0 0 1-1.19 1.17 1.17 0 0 0-.1-.47l-1.72-4-10.17-5.88A20 20 0 0 0 39 20a20.24 20.24 0 0 0-1.25-6.93l10.1-5.83 1.72-4a1.1 1.1 0 0 0 .1-.47 1.19 1.19 0 0 0-1-1.18L44.24 1 34.11 6.85zM33.49 10a16.39 16.39 0 0 1 1.2 2l-9.49 5.52a7.17 7.17 0 0 0-1.26-2zM13.74 20.15a4.79 4.79 0 1 1 4.79 4.79 4.79 4.79 0 0 1-4.79-4.79zm32.2 14.61l.78 1.83-2 .24-20.8-12a6.9 6.9 0 0 0 1.26-2zM36.59 20a17.55 17.55 0 0 1-1.07 6l-9.82-5.69v-.16V20l9.91-5.73a17.7 17.7 0 0 1 1 5.71zM46.72 3.71l-.78 1.84-9.18 5.29a21.39 21.39 0 0 0-1.2-2.07l9.18-5.3z" transform="translate(-11.35 -1)" style="" fill="#008fc7"/></g></svg>