<svg id="Layer_1" data-name="Layer 1" xmlns="http://www.w3.org/2000/svg" width="65" height="65" viewBox="0 0 65.73 65.73"><title>tick</title><g class="nc-icon-wrapper"><defs><linearGradient id="linear-gradient" x1="933.78" y1="476.36" x2="976.05" y2="579.4" gradientUnits="userSpaceOnUse"><stop offset=".02" stop-color="#d5e05b"/><stop offset="1" stop-color="#b6cf50"/></linearGradient></defs><path class="cls-1" d="M992.87 540.28A32.87 32.87 0 1 1 960 507.41a32.87 32.87 0 0 1 32.87 32.87zm-36.67 17.4l24.38-24.38a2.12 2.12 0 0 0 0-3l-3-3a2.11 2.11 0 0 0-3 0l-19.88 19.89-9.29-9.29a2.11 2.11 0 0 0-3 0l-3 3a2.12 2.12 0 0 0 0 3l13.78 13.78a2.12 2.12 0 0 0 3 0z" transform="translate(-927.13 -507.41)" style="" fill="url(#linear-gradient)"/></g></svg>